# xmcd
# Copyright (C) 1995-1998 Ti Kan
#
# Track frame offsets:
#       150
#       18615
#       32446
#       53579
#       84803
#       107162
#       110812
#       137201
#       162290
#       184297
#       204504
#       229303
#       241526
#       263028
#
# Disc length: 3744 seconds
#
# Revision: 0
# Processed by: cddbd v1.5.2PL0 Copyright (c) Steve Scherf et al.
# Submitted via: CD-Import v1.0
#
DISCID=b40e9e0e
DTITLE=Tsering Purtag - Tsering Purtag
DYEAR=1900
DGENRE=
TTITLE0=Lift Me Up
TTITLE1=Do I Do I Do I
TTITLE2=The Day You Were Gone
TTITLE3=Travellin' Man
TTITLE4=Holding On To You
TTITLE5=Sunlight Through The Rain
TTITLE6=All You Have To Do
TTITLE7=Hold On To Love
TTITLE8=Save You From The Cold
TTITLE9=A Smile Was All She Left
TTITLE10=Fight For A Change
TTITLE11=Beautiful Lake
TTITLE12=Down Down Down
TTITLE13=In The Mood ... Again
EXTD=
EXTT0=
EXTT1=
EXTT2=
EXTT3=
EXTT4=
EXTT5=
EXTT6=
EXTT7=
EXTT8=
EXTT9=
EXTT10=
EXTT11=
EXTT12=
EXTT13=
PLAYORDER=
